# xmcd
#
# Track frame offsets: 
#        150
#        15582
#        30947
#        62757
#        94550
#        125557
#
# Disc length: 2085 seconds
#
# Revision: 0
# Processed by: cddbd v1.5.2PL0 Copyright (c) Steve Scherf et al.
# Submitted via: ExactAudioCopy v1.0b3
#
DISCID=3e082306
DTITLE=De Leon - Hold Me Tight (Disco Freakshow)
DYEAR=1900
DGENRE=
TTITLE0=Hold Me Tight (Disco Freakshow) (Radio Mix)
TTITLE1=Hold Me Tight (Disco Freakshow) (Alternative Radio Mix)
TTITLE2=Hold Me Tight (Disco Freakshow) (Extended Club Mix)
TTITLE3=Hold Me Tight (Disco Freakshow) (Extended Dub Mix)
TTITLE4=Hold Me Tight (Disco Freakshow) (Club Mix)
TTITLE5=Hold Me Tight (Disco Freakshow) (Club Dub)
EXTD=
EXTT0=
EXTT1=
EXTT2=
EXTT3=
EXTT4=
EXTT5=
PLAYORDER=
